<svg width="134" height="42" viewBox="0 0 134 42" fill="none" xmlns="http://www.w3.org/2000/svg">
<g clip-path="url(#clip0)">
<path d="M0 36.7434V36.6909C0 33.6771 2.33648 32.2753 5.67177 32.2753C7.09863 32.2753 8.11527 32.5031 9.11407 32.836V32.6083C9.11407 30.9787 8.09743 30.0851 6.09983 30.0851C4.58379 30.0851 3.49581 30.3655 2.21163 30.8385L1.21283 27.8423C2.76454 27.1765 4.28058 26.7384 6.67057 26.7384C8.84653 26.7384 10.4339 27.2991 11.4327 28.2803C12.485 29.3141 12.9488 30.8385 12.9488 32.6959V40.7209H9.09623V39.2315C8.1331 40.2828 6.77759 40.9837 4.83349 40.9837C2.17596 40.9662 0 39.4768 0 36.7434ZM9.16758 35.8323V35.1314C8.48982 34.816 7.59803 34.6233 6.61706 34.6233C4.90483 34.6233 3.85252 35.2891 3.85252 36.5332V36.5857C3.85252 37.637 4.74431 38.2678 6.02848 38.2678C7.90124 38.2678 9.16758 37.2516 9.16758 35.8323Z" fill="#F44747"/>
<path d="M15.7668 33.8348V33.7822C15.7668 29.1564 18.8346 26.6333 22.1699 26.6333C24.2923 26.6333 25.6122 27.5795 26.5575 28.7009V21.8848H30.5527V40.7209H26.5575V38.7234C25.5944 40.02 24.2388 40.9662 22.1699 40.9662C18.8881 40.9662 15.7668 38.4431 15.7668 33.8348ZM26.611 33.8348V33.7822C26.611 31.4869 25.0593 29.9624 23.2044 29.9624C21.3316 29.9624 19.7621 31.4518 19.7621 33.7822V33.8348C19.7621 36.1302 21.3316 37.6546 23.2044 37.6546C25.0593 37.637 26.611 36.1302 26.611 33.8348Z" fill="#F44747"/>
<path d="M33.442 33.8698V33.8173C33.442 29.8398 36.706 26.6158 41.0936 26.6158C45.4455 26.6158 48.6916 29.7872 48.6916 33.7647V33.8173C48.6916 37.7947 45.4276 41.0188 41.04 41.0188C36.6703 41.0188 33.442 37.8473 33.442 33.8698ZM44.732 33.8698V33.8173C44.732 31.7847 43.2338 29.9975 41.0222 29.9975C38.7392 29.9975 37.3659 31.7322 37.3659 33.7647V33.8173C37.3659 35.8498 38.8641 37.637 41.0757 37.637C43.3765 37.637 44.732 35.9199 44.732 33.8698Z" fill="#F44747"/>
<path d="M51.5631 26.8786H55.5583V29.6646C56.3788 27.7547 57.6808 26.5106 60.0529 26.6158V30.7159H59.8389C57.1814 30.7159 55.5583 32.2929 55.5583 35.587V40.7034H51.5631V26.8786Z" fill="#F44747"/>
<path d="M83.7031 22.1126H84.5771V40.9487H83.7031V22.1126Z" fill="black"/>
<path d="M89.6426 22.7785H90.7662V24.3554H89.6426V22.7785ZM89.7674 27.9474H90.6414V40.9487H89.7674V27.9474Z" fill="black"/>
<path d="M94.3154 27.9474H95.2786L100.718 40.0551L106.176 27.9474H107.104L101.057 41.0538H100.38L94.3154 27.9474Z" fill="black"/>
<path d="M108.923 34.4481V34.3955C108.923 30.5757 111.598 27.632 115.255 27.632C119.25 27.632 121.319 30.9787 121.319 34.4656C121.319 34.5882 121.319 34.6408 121.319 34.7459H109.832C109.993 38.2854 112.544 40.4756 115.504 40.4756C117.555 40.4756 119.214 39.4243 120.266 38.0751L120.891 38.5657C119.678 40.1076 117.894 41.2466 115.486 41.2466C111.919 41.2641 108.923 38.6007 108.923 34.4481ZM120.391 34.01C120.266 31.1715 118.501 28.403 115.183 28.403C112.187 28.403 109.975 30.8035 109.832 34.01H120.391Z" fill="black"/>
<path d="M123.923 39.2666L124.422 38.6183C125.885 39.7572 127.65 40.4055 129.363 40.4055C131.485 40.4055 133.144 39.3016 133.144 37.6896V37.637C133.144 35.7972 131.146 35.2365 129.131 34.6934C126.669 33.9925 124.529 33.3267 124.529 31.1539V31.1014C124.529 29.174 126.348 27.7021 129.042 27.7021C130.558 27.7021 132.306 28.2103 133.697 29.1389L133.215 29.8398C131.949 28.9637 130.397 28.4731 129.006 28.4731C126.83 28.4731 125.385 29.577 125.385 31.0313V31.0839C125.385 32.7134 127.258 33.3091 129.398 33.9049C131.806 34.5532 134 35.3066 134 37.567V37.6195C134 39.7572 131.949 41.1765 129.291 41.1765C127.401 41.1765 125.367 40.4581 123.923 39.2666Z" fill="black"/>
<path d="M55.2016 4.60827C55.0232 4.29287 54.6309 4.17022 54.292 4.34544C53.1327 4.95871 51.9912 5.62454 50.9032 6.36046C50.6 6.57072 50.5108 6.97372 50.7249 7.2716C50.8497 7.44682 51.0637 7.55195 51.2778 7.55195C51.4026 7.55195 51.5453 7.5169 51.6523 7.44682C52.7046 6.74594 53.8104 6.09763 54.9341 5.50188C55.2551 5.32666 55.3621 4.92366 55.2016 4.60827Z" fill="#F44747"/>
<path d="M57.2705 4.36295C57.6093 4.20525 57.752 3.81977 57.6093 3.48685C57.4666 3.15394 57.0743 3.01376 56.7354 3.15394C56.3965 3.29411 56.2539 3.67959 56.3965 4.01251C56.5036 4.24029 56.7354 4.39799 57.0029 4.39799C57.0921 4.43304 57.1991 4.39799 57.2705 4.36295Z" fill="#F44747"/>
<path d="M59.4822 3.45182C59.5535 3.45182 59.6427 3.4343 59.714 3.41678C60.0529 3.29413 60.2491 2.92617 60.1243 2.57573C60.0351 2.3129 59.7854 2.13768 59.5 2.13768C59.1255 2.13768 58.8401 2.43555 58.8401 2.78599C58.8401 2.85608 58.8579 2.94369 58.8758 3.01378C58.9471 3.27661 59.1968 3.45182 59.4822 3.45182Z" fill="#F44747"/>
<path d="M93.0313 6.36045C86.8245 2.20776 79.4761 0 71.9673 0C68.5428 0 65.1362 0.45557 61.8366 1.36671C61.4799 1.47184 61.2658 1.82228 61.3729 2.17272C61.4442 2.45307 61.7117 2.64581 62.0149 2.64581C62.0685 2.64581 62.1398 2.64581 62.1933 2.62829C72.4667 -0.192741 83.4714 1.57697 92.2822 7.44681C92.5854 7.65707 92.9956 7.58698 93.2097 7.28911C93.4237 6.99124 93.3524 6.58824 93.0491 6.37797C93.067 6.37797 93.0491 6.36045 93.0313 6.36045Z" fill="#F44747"/>
<path d="M89.4641 10.7409C84.2739 7.37673 78.1919 5.58949 71.9673 5.58949C66.7592 5.58949 61.6225 6.85107 57.0209 9.25157C56.6999 9.40927 56.5572 9.81227 56.7355 10.1277C56.8961 10.4431 57.3063 10.5832 57.6273 10.408C57.6273 10.408 57.6452 10.408 57.6452 10.3905C67.4905 5.23905 79.4226 5.78223 88.7329 11.8098C89.0361 12.0025 89.4463 11.9324 89.6603 11.617C89.8565 11.3367 89.7674 10.9337 89.4641 10.7409Z" fill="#F44747"/>
<path d="M55.0233 10.4956C54.6488 10.4956 54.3634 10.7935 54.3634 11.1439C54.3634 11.5119 54.6666 11.7922 55.0233 11.7922C55.38 11.7922 55.6833 11.4944 55.6833 11.1439C55.6833 11.0213 55.6476 10.8986 55.5762 10.7935C55.4692 10.6183 55.2552 10.4956 55.0233 10.4956Z" fill="#F44747"/>
<path d="M64.9935 13.4218C65.047 13.4218 65.1183 13.4218 65.1718 13.4043C65.5286 13.2991 65.7248 12.9487 65.6356 12.5982C65.5464 12.3179 65.2967 12.1252 64.9935 12.1252C64.94 12.1252 64.8686 12.1427 64.8151 12.1427C64.4584 12.2478 64.2622 12.5982 64.3514 12.9487C64.4405 13.229 64.7081 13.4218 64.9935 13.4218Z" fill="#F44747"/>
<path d="M85.8969 15.1039C81.7233 12.5282 76.9077 11.1615 71.985 11.1615C71.3964 11.1615 70.8079 11.179 70.2193 11.214C69.8447 11.2315 69.5594 11.5294 69.5772 11.8974C69.595 12.2653 69.8982 12.5457 70.2728 12.5282C70.2906 12.5282 70.2906 12.5282 70.3085 12.5282C70.8614 12.4931 71.4321 12.4756 71.985 12.4756C76.658 12.4756 81.2417 13.7722 85.2013 16.2078C85.5223 16.383 85.9325 16.2778 86.1109 15.98C86.2714 15.6821 86.1822 15.2966 85.8969 15.1039Z" fill="#F44747"/>
<path d="M67.5974 12.8436C67.6331 12.8436 67.6687 12.8435 67.7044 12.826C68.0611 12.7559 68.3108 12.423 68.2395 12.0726C68.1681 11.7221 67.8293 11.4768 67.4725 11.5469C67.1158 11.617 66.8662 11.9499 66.9375 12.3004C67.0088 12.6158 67.2764 12.8436 67.5974 12.8436Z" fill="#F44747"/>
<path d="M63.0851 13.3692C62.9781 13.1239 62.7462 12.9662 62.4609 12.9662C62.3717 12.9662 62.2825 12.9837 62.2112 13.0188C60.7665 13.597 59.3574 14.2979 58.0376 15.1214C57.7165 15.3142 57.6273 15.7172 57.8235 16.0325C58.0197 16.3479 58.43 16.4356 58.751 16.2428C60.0174 15.4718 61.3372 14.806 62.7106 14.2628C63.0673 14.0876 63.2278 13.7197 63.0851 13.3692Z" fill="#F44747"/>
<path d="M82.0802 19.3617C81.7591 19.1865 81.3489 19.2916 81.1705 19.607C81.0813 19.7647 81.0635 19.9399 81.0991 20.0976C81.1526 20.2728 81.2597 20.413 81.4202 20.5006C81.7413 20.6759 82.1515 20.5707 82.3299 20.2553C82.5083 19.9399 82.4012 19.5544 82.0802 19.3617Z" fill="#F44747"/>
<path d="M76.6401 18.6258C76.6936 18.6433 76.7471 18.6433 76.8007 18.6433C77.1752 18.6433 77.4606 18.3454 77.4606 17.995C77.4606 17.6971 77.2465 17.4343 76.9612 17.3642C75.3203 16.9612 73.6437 16.7509 71.9672 16.7509C68.3465 16.7509 64.7794 17.6971 61.6403 19.5019C61.3193 19.6771 61.2123 20.0801 61.3906 20.3955C61.569 20.7109 61.9792 20.816 62.3002 20.6233H62.3181C66.6521 18.1352 71.7888 17.4343 76.6401 18.6258Z" fill="#F44747"/>
<path d="M79.1015 19.4143C79.1728 19.4493 79.262 19.4668 79.3512 19.4668C79.7257 19.4668 80.011 19.169 80.011 18.8185C80.011 18.4506 79.7079 18.1702 79.3512 18.1702C78.9766 18.1702 78.6913 18.4681 78.6913 18.8185C78.6913 19.0814 78.8518 19.3091 79.0836 19.4143H79.1015Z" fill="#F44747"/>
<path d="M77.3181 23.9875C77.1575 24.3204 77.3002 24.7059 77.6391 24.8636C77.978 25.0213 78.3704 24.8811 78.5309 24.5482C78.6915 24.2153 78.5488 23.8298 78.2099 23.6721C77.871 23.5144 77.4786 23.6721 77.3181 23.9875Z" fill="#F44747"/>
<path d="M68.3109 22.7785C67.9541 22.8661 67.7401 23.2165 67.8293 23.567C67.9006 23.8648 68.1682 24.0576 68.4714 24.0576C68.5249 24.0576 68.5784 24.0576 68.6319 24.04C70.8079 23.4969 73.073 23.4969 75.249 24.0225C75.6057 24.1101 75.9624 23.8999 76.0694 23.5494C76.1764 23.199 75.9446 22.8486 75.5878 22.7434H75.57C73.18 22.1827 70.683 22.1827 68.3109 22.7785Z" fill="#F44747"/>
<path d="M65.9566 23.6371C65.8674 23.6371 65.7604 23.6546 65.6712 23.6896C65.3323 23.8473 65.1897 24.2328 65.3502 24.5657C65.5107 24.8986 65.9031 25.0388 66.242 24.8811C66.5808 24.7234 66.7235 24.3379 66.563 24.005C66.456 23.7948 66.2241 23.6371 65.9566 23.6371Z" fill="#F44747"/>
<path d="M79.7436 28.4205C77.6747 26.3705 74.2859 26.3705 72.1991 28.403C72.1099 28.4906 72.0386 28.5782 71.9494 28.6658C70.0053 26.4931 66.6343 26.2829 64.4227 28.1927C63.3169 29.1389 62.6748 30.4881 62.6213 31.9424C62.6034 32.3104 62.8888 32.6083 63.2634 32.6258C63.6379 32.6433 63.9411 32.363 63.959 31.995C64.0303 29.8748 65.8139 28.1927 67.9542 28.2103C69.3632 28.2103 70.6652 28.9287 71.3787 30.1201L71.9494 31.0488L72.5201 30.1201C73.6616 28.2628 76.1051 27.6496 78.0136 28.7534C79.2264 29.4718 79.9577 30.7509 79.9577 32.1352C79.9577 33.5194 79.5474 34.7635 78.7092 35.9725C77.532 37.6721 75.6949 38.8636 74.3751 39.5645C73.7686 39.8798 73.1444 40.1777 72.5023 40.423C72.2526 40.5106 72.0564 40.5807 71.9494 40.6333C71.0933 40.3354 70.255 39.9675 69.4702 39.5469C68.3109 38.9337 66.6878 37.8823 65.5107 36.428C65.2788 36.1477 64.8507 36.1126 64.5654 36.3404C64.28 36.5682 64.2443 36.9537 64.4584 37.234C65.5642 38.6183 67.1337 39.8273 69.1135 40.8436C69.9696 41.2816 70.8436 41.6496 71.7532 41.9474L71.9494 42L72.1456 41.9474C72.1456 41.9474 72.1456 41.9474 72.1634 41.9474C73.7686 41.4218 75.2847 40.6683 76.6759 39.7397C77.9957 38.8285 79.0659 37.8298 79.8328 36.7259C80.2787 36.0776 80.6354 35.3767 80.903 34.6408C81.1705 33.8348 81.3132 32.9937 81.3132 32.1527C81.3132 30.7509 80.7603 29.4193 79.7436 28.4205Z" fill="#F44747"/>
<path d="M64.3336 34.3254C64.2444 34.0626 63.9947 33.8874 63.7093 33.8874C63.638 33.8874 63.5667 33.9049 63.4953 33.9224C63.1564 34.0451 62.9602 34.413 63.0851 34.7635C63.1743 35.0263 63.424 35.2015 63.7093 35.2015C64.0839 35.2015 64.3693 34.9036 64.3693 34.5532C64.3693 34.4656 64.3514 34.3955 64.3336 34.3254Z" fill="#F44747"/>
</g>
<defs>
<clipPath id="clip0">
<rect width="134" height="42" fill="white"/>
</clipPath>
</defs>
</svg>
