<?xml version="1.0" standalone="no"?>
<!DOCTYPE svg PUBLIC "-//W3C//DTD SVG 20010904//EN"
 "http://www.w3.org/TR/2001/REC-SVG-20010904/DTD/svg10.dtd">
<svg version="1.0" xmlns="http://www.w3.org/2000/svg"
 width="300.000000pt" height="300.000000pt" viewBox="0 0 300.000000 300.000000"
 preserveAspectRatio="xMidYMid meet">
<metadata>
Created by potrace 1.11, written by Peter Selinger 2001-2013
</metadata>
<g transform="translate(0.000000,300.000000) scale(0.100000,-0.100000)"
fill="#000000" stroke="none">
<path d="M768 2695 c-2 -1 -27 -6 -56 -9 -118 -14 -285 -90 -393 -180 -181
-149 -284 -347 -303 -578 -4 -48 0 -63 18 -90 29 -44 79 -61 124 -42 57 23 64
35 77 149 23 197 141 366 327 468 110 61 300 91 410 65 24 -5 48 -11 53 -12
148 -32 292 -140 384 -286 22 -36 44 -69 48 -75 5 -5 14 -22 22 -37 18 -35 25
-35 39 -2 25 54 123 191 171 239 48 49 174 132 209 139 9 1 24 6 32 10 43 19
155 34 235 31 269 -8 494 -181 582 -445 24 -72 26 -278 3 -380 -51 -237 -153
-408 -365 -615 -197 -193 -514 -388 -805 -495 -99 -36 -79 -40 -300 56 -308
133 -593 336 -787 558 -64 74 -145 79 -189 11 -42 -64 -16 -115 137 -266 215
-212 524 -408 854 -539 161 -64 202 -74 249 -59 22 8 43 14 46 15 3 0 14 4 25
9 11 4 65 26 120 48 121 48 306 143 435 222 52 32 97 61 100 64 3 4 32 26 65
50 264 195 439 404 554 662 27 61 68 187 75 230 3 19 9 52 13 74 9 49 8 275
-1 330 -6 38 -21 93 -33 125 -4 8 -7 17 -8 20 -60 180 -249 377 -447 468 -140
64 -363 88 -518 56 -158 -33 -313 -112 -424 -218 l-49 -46 -45 45 c-104 105
-277 192 -432 219 -73 12 -242 20 -252 11z"/>
<path d="M138 1574 c-49 -26 -64 -76 -44 -142 8 -25 58 -52 96 -52 112 0 143
162 38 199 -40 14 -57 13 -90 -5z"/>
</g>
</svg>
