<svg width="37" height="38" viewBox="0 0 37 38" fill="none" xmlns="http://www.w3.org/2000/svg">
<path d="M18.5004 37.0166C28.7179 37.0166 37.0008 28.7302 37.0008 18.5083C37.0008 8.28645 28.7179 0 18.5004 0C8.2829 0 0 8.28645 0 18.5083C0 28.7302 8.2829 37.0166 18.5004 37.0166Z" fill="url(#paint0_linear)"/>
<path d="M9.67972 14.6118H13.7464V27.6192H9.67972V14.6118ZM11.6844 8.13678C13.0018 8.13678 14.0328 9.1682 14.0328 10.4861C14.0328 11.8041 13.0018 12.8355 11.6844 12.8355C10.367 12.8355 9.33606 11.8041 9.33606 10.4861C9.33606 9.1682 10.367 8.13678 11.6844 8.13678Z" fill="white"/>
<path d="M16.2666 14.6118H20.1614V16.3882H20.2187C20.7342 15.3568 22.1088 14.268 24.0562 14.268C28.1802 14.268 28.9248 16.9612 28.9248 20.4566V27.6192H24.8581V21.2588C24.8581 19.769 24.8008 17.8207 22.7389 17.8207C20.6196 17.8207 20.3333 19.4825 20.3333 21.1442V27.5619H16.2666V14.6118Z" fill="white"/>
<defs>
<linearGradient id="paint0_linear" x1="5.38968" y1="5.41457" x2="31.5994" y2="31.6131" gradientUnits="userSpaceOnUse">
<stop stop-color="#007AB5"/>
<stop offset="1" stop-color="#0046E5"/>
</linearGradient>
</defs>
</svg>
