<svg width="108" height="108" viewBox="0 0 108 108" fill="none" xmlns="http://www.w3.org/2000/svg">
<path d="M102.485 73.742H5.51549C2.4743 73.742 0 71.2688 0 68.228V16.0869C0 13.0464 2.4743 10.5728 5.51549 10.5728H102.485C105.525 10.5728 108 13.0464 108 16.0869V68.228C108 71.2688 105.525 73.742 102.485 73.742ZM5.51549 15.027C4.93053 15.027 4.45379 15.5024 4.45379 16.0869V68.228C4.45379 68.8125 4.93053 69.2882 5.51549 69.2882H102.485C103.07 69.2882 103.546 68.8125 103.546 68.228V16.0869C103.546 15.5024 103.07 15.027 102.485 15.027H5.51549Z" fill="#F44747"/>
<path d="M42.4704 59.0822C41.7391 58.6821 41.2634 57.9365 41.2634 57.1033V27.2118C41.2634 26.3782 41.7294 25.615 42.4704 25.2326C43.211 24.8504 44.1023 24.9141 44.7816 25.3972L65.7993 40.3429C66.3873 40.7607 66.7356 41.437 66.7356 42.1577C66.7356 42.8786 66.3873 43.5549 65.7993 43.9728C65.7993 43.9728 50.0352 55.1814 44.7816 58.918C44.3976 59.191 43.57 59.6841 42.4704 59.0822ZM45.7181 31.5283V52.7869L60.6655 42.1577L45.7181 31.5283Z" fill="#F44747"/>
<path d="M105.773 86.3839H63.2058C62.2173 82.5973 58.7674 79.795 54.6755 79.795C50.5841 79.795 47.1352 82.5973 46.1464 86.3839H2.227C0.997347 86.3839 0 87.3813 0 88.6109C0 89.841 0.997347 90.8379 2.227 90.8379H46.1466C47.1354 94.6245 50.5846 97.4273 54.6758 97.4273C58.7676 97.4273 62.2175 94.6243 63.206 90.8379H105.773C107.002 90.8379 108 89.8412 108 88.6109C108 87.3813 107.002 86.3839 105.773 86.3839ZM54.6755 92.9728C52.2713 92.9728 50.3141 91.016 50.3141 88.6107C50.3141 86.2058 52.2713 84.2493 54.6755 84.2493C57.0809 84.2493 59.0376 86.2058 59.0376 88.6107C59.0376 91.0162 57.0809 92.9728 54.6755 92.9728Z" fill="#F44747"/>
</svg>
