<svg width="37" height="38" viewBox="0 0 37 38" fill="none" xmlns="http://www.w3.org/2000/svg">
<path d="M18.5004 37.0166C28.7179 37.0166 37.0008 28.7302 37.0008 18.5083C37.0008 8.28645 28.7179 0 18.5004 0C8.28291 0 0 8.28645 0 18.5083C0 28.7302 8.28291 37.0166 18.5004 37.0166Z" fill="url(#paint0_linear)"/>
<path fill-rule="evenodd" clip-rule="evenodd" d="M23.5981 19.7117C23.0826 19.4252 22.4525 19.0814 21.8798 19.3106C21.4216 19.4825 21.1352 20.1701 20.8488 20.5712C20.677 20.7431 20.5051 20.8004 20.276 20.6858C18.615 19.9982 17.2976 18.9094 16.3812 17.3623C16.2094 17.1331 16.2667 16.9612 16.4385 16.732C16.7249 16.3882 17.0685 16.0444 17.1258 15.586C17.1831 15.1276 17.0113 14.6119 16.7822 14.2107C16.553 13.695 16.2667 13.0074 15.7512 12.7209C15.293 12.4344 14.6629 12.6063 14.262 12.9501C13.5747 13.5231 13.1737 14.44 13.231 15.3568C13.231 15.586 13.2883 15.8725 13.3456 16.1017C13.5174 16.6747 13.7465 17.2477 14.0901 17.7634C14.3193 18.1645 14.6056 18.5656 14.8347 18.9095C15.7512 20.1128 16.8394 21.2015 18.1568 22.0037C18.7868 22.4048 19.4742 22.7486 20.2188 22.9778C21.0206 23.2643 21.7652 23.5508 22.6244 23.3789C23.5408 23.207 24.4572 22.634 24.8009 21.7745C24.9154 21.488 24.9727 21.2015 24.9154 20.9723C24.8582 20.342 24.0563 19.9982 23.5981 19.7117Z" fill="white"/>
<path d="M6.87305 30.3697L8.59135 23.8373C7.61764 22.061 7.10215 20.0555 7.10215 18.0499C7.10215 11.403 12.4862 6.01663 19.1303 6.01663C25.7744 6.01663 31.1584 11.403 31.1584 18.0499C31.1584 24.6969 25.7744 30.0832 19.1303 30.0832C17.1256 30.0832 15.1782 29.5675 13.4026 28.6507L6.87305 30.3697ZM13.7463 26.1867L14.1472 26.4159C15.6364 27.3327 17.3547 27.7911 19.1303 27.7911C24.5143 27.7911 28.8673 23.4362 28.8673 18.0499C28.8673 12.6636 24.5143 8.30868 19.1303 8.30868C13.7463 8.30868 9.39322 12.6636 9.39322 18.0499C9.39322 19.8263 9.90871 21.6026 10.8251 23.0924L11.0543 23.4935L10.0805 27.1035L13.7463 26.1867Z" fill="white"/>
<defs>
<linearGradient id="paint0_linear" x1="5.40171" y1="5.41457" x2="31.6115" y2="31.6131" gradientUnits="userSpaceOnUse">
<stop stop-color="#60FC7C"/>
<stop offset="1" stop-color="#4AB161"/>
</linearGradient>
</defs>
</svg>
