<svg width="38" height="38" viewBox="0 0 38 38" fill="none" xmlns="http://www.w3.org/2000/svg">
<path d="M18.9586 37.0166C29.1761 37.0166 37.459 28.7302 37.459 18.5083C37.459 8.28646 29.1761 0 18.9586 0C8.74116 0 0.458252 8.28646 0.458252 18.5083C0.458252 28.7302 8.74116 37.0166 18.9586 37.0166Z" fill="url(#paint0_linear)"/>
<path d="M25.5454 13.5231C26.3363 13.5231 26.9774 12.8817 26.9774 12.0906C26.9774 11.2994 26.3363 10.6581 25.5454 10.6581C24.7546 10.6581 24.1135 11.2994 24.1135 12.0906C24.1135 12.8817 24.7546 13.5231 25.5454 13.5231Z" fill="white"/>
<path d="M19.1304 12.4917C15.8084 12.4917 13.0591 15.1848 13.0591 18.5656C13.0591 21.9464 15.7511 24.6395 19.1304 24.6395C22.5097 24.6395 25.2018 21.9464 25.2018 18.5656C25.2018 15.1848 22.4525 12.4917 19.1304 12.4917ZM19.1304 22.4048C17.0112 22.4048 15.2356 20.6858 15.2356 18.5083C15.2356 16.3882 16.9539 14.6118 19.1304 14.6118C21.3069 14.6118 23.0252 16.3309 23.0252 18.5083C23.0252 20.6858 21.2497 22.4048 19.1304 22.4048Z" fill="white"/>
<path d="M23.9416 30.8281H14.1472C10.0806 30.8281 6.75854 27.5046 6.75854 23.4362V13.6377C6.75854 9.56932 10.0806 6.24585 14.1472 6.24585H23.9416C28.0082 6.24585 31.3303 9.56932 31.3303 13.6377V23.4362C31.3303 27.5046 28.0082 30.8281 23.9416 30.8281ZM14.1472 8.5379C11.3407 8.5379 9.10689 10.83 9.10689 13.5804V23.3789C9.10689 26.1867 11.398 28.4214 14.1472 28.4214H23.9416C26.7481 28.4214 28.9819 26.1294 28.9819 23.3789V13.6377C28.9819 10.83 26.6909 8.5952 23.9416 8.5952H14.1472V8.5379Z" fill="white"/>
<defs>
<linearGradient id="paint0_linear" x1="3.17804" y1="34.3368" x2="43.2299" y2="-5.6979" gradientUnits="userSpaceOnUse">
<stop offset="0.0011048" stop-color="#FBE18A"/>
<stop offset="0.2094" stop-color="#FCBB45"/>
<stop offset="0.3765" stop-color="#F75274"/>
<stop offset="0.5238" stop-color="#D53692"/>
<stop offset="0.7394" stop-color="#8F39CE"/>
<stop offset="1" stop-color="#5B4FE9"/>
</linearGradient>
</defs>
</svg>
