<svg width="37" height="37" viewBox="0 0 37 37" fill="none" xmlns="http://www.w3.org/2000/svg">
<circle cx="18.5" cy="18.5" r="18.5" fill="#303030"/>
<g clip-path="url(#clip0)">
<path d="M17.0153 16.8768V16.0971C16.7396 16.0548 16.4619 16.031 16.1831 16.0268C13.4845 16.0217 11.0963 17.7401 10.2862 20.2682C9.47609 22.7962 10.4324 25.5507 12.6471 27.0655C10.3241 24.6212 10.4566 20.7893 12.9427 18.5063C14.0495 17.4889 15.4992 16.9088 17.0153 16.8768Z" fill="#25F4EE"/>
<path d="M17.1648 25.7048C18.6735 25.7027 19.9128 24.5353 19.9791 23.0537V9.83648H22.4357C22.3852 9.56041 22.3621 9.2802 22.3642 9H19.0049V22.2048C18.9491 23.6937 17.7056 24.8724 16.1906 24.8755C15.7382 24.8724 15.2921 24.7618 14.8902 24.556C15.4173 25.2746 16.2632 25.7016 17.1648 25.7048ZM27.0249 14.3208V13.5867C26.1201 13.5867 25.2363 13.324 24.483 12.8329C25.1427 13.5867 26.0349 14.1099 27.0249 14.3208Z" fill="#25F4EE"/>
<path d="M24.484 12.8329C23.7423 12.0027 23.333 10.9356 23.3341 9.83029H22.4366C22.6691 11.0648 23.4098 12.1515 24.484 12.8329ZM16.1831 19.3304C14.6249 19.3386 13.3688 20.5856 13.3761 22.1169C13.3814 23.1416 13.9611 24.0794 14.8827 24.556C13.9716 23.3194 14.2525 21.5896 15.5108 20.6931C15.9916 20.3509 16.5702 20.1668 17.1647 20.1679C17.4466 20.171 17.7275 20.2144 17.9969 20.2961V16.9357C17.7223 16.8954 17.4435 16.8737 17.1647 16.8716H17.0153V19.4276C16.7438 19.3541 16.4629 19.3221 16.1831 19.3304Z" fill="#FE2C55"/>
<path d="M27.0247 14.3208V16.8767C25.3508 16.8736 23.7201 16.3525 22.364 15.3878V22.1014C22.3566 25.4514 19.5917 28.1635 16.183 28.1635C14.9174 28.1656 13.6812 27.782 12.647 27.0644C14.9668 29.5159 18.87 29.6565 21.3655 27.3767C22.6207 26.23 23.334 24.6222 23.334 22.9378V16.2439C24.6943 17.2014 26.3271 17.7153 28.001 17.7132V14.4242C27.6717 14.4221 27.3456 14.388 27.0247 14.3208Z" fill="#FE2C55"/>
<path d="M22.3641 22.1024V15.3889C23.7245 16.3474 25.3573 16.8613 27.0311 16.8582V14.3022C26.0422 14.0964 25.1479 13.5815 24.483 12.8329C23.4099 12.1505 22.6692 11.0648 22.4357 9.83029H19.978V23.0537C19.9138 24.5839 18.6008 25.773 17.0438 25.711C16.1811 25.6768 15.3815 25.255 14.8744 24.5684C13.4962 23.855 12.967 22.1789 13.6929 20.8234C14.1779 19.9166 15.1332 19.3479 16.1747 19.3428C16.4567 19.3459 16.7376 19.3883 17.0069 19.47V16.8768C13.6045 16.9336 10.8923 19.7295 10.9501 23.0733C10.9764 24.5881 11.5782 26.0377 12.6387 27.1368C13.6834 27.8306 14.9207 28.1894 16.1811 28.1656C19.5919 28.1646 22.3568 25.4525 22.3641 22.1024Z" fill="white"/>
</g>
<defs>
<clipPath id="clip0">
<rect width="18" height="20" fill="white" transform="translate(10 9)"/>
</clipPath>
</defs>
</svg>
