<svg width="22" height="18" viewBox="0 0 22 18" fill="none" xmlns="http://www.w3.org/2000/svg">
<g clip-path="url(#clip0)">
<path d="M1.84737 1.83545C4.28249 -0.604871 8.25004 -0.604872 10.7062 1.8146C10.8111 1.91888 10.8951 2.02317 11 2.12746C13.2882 -0.458869 17.2558 -0.709159 19.8798 1.56431C21.1603 2.69061 21.9371 4.29664 22 6.00695C22.021 6.44495 21.6852 6.79953 21.2443 6.82039C20.8035 6.84125 20.4466 6.50753 20.4256 6.06952C20.3416 3.54577 18.2634 1.56431 15.7233 1.56431C14.0649 1.56431 12.5325 2.41946 11.6928 3.83777L11.021 4.94322L10.3493 3.83777C8.98478 1.62688 6.10882 0.896867 3.86264 2.23175C2.43516 3.0869 1.57447 4.6095 1.57447 6.25724C1.57447 7.90498 2.0573 9.38586 3.04394 10.825C4.42943 12.8482 6.57066 14.2665 8.14508 15.1008C8.85882 15.4762 9.59356 15.8308 10.3493 16.1228C10.6432 16.2271 10.8741 16.3105 11 16.3731C12.0077 16.0185 12.9943 15.5805 13.918 15.08C15.2825 14.3499 17.1928 13.0985 18.5783 11.3673C18.8512 11.0336 19.355 10.9919 19.6909 11.263C20.0268 11.5342 20.0687 11.993 19.8168 12.3268C18.5153 13.9745 16.668 15.4137 14.3378 16.6234C13.3302 17.1448 12.3016 17.5828 11.231 17.9374L11 18L10.7691 17.9374C10.7691 17.9374 10.7691 17.9374 10.7481 17.9374C8.85882 17.3117 7.07447 16.4148 5.43707 15.3094C3.88363 14.2248 2.62409 13.0359 1.72142 11.7219C1.19661 10.9502 0.776764 10.1159 0.461878 9.23986C0.146992 8.28041 -0.0209465 7.27925 -0.0209465 6.2781C4.57764e-05 4.58864 0.671801 3.00347 1.84737 1.83545Z" fill="#F44747"/>
<path d="M19.9847 8.84357C20.0897 8.5307 20.3836 8.32213 20.7195 8.32213C20.8034 8.32213 20.8874 8.34299 20.9714 8.36384C21.3702 8.50985 21.6012 8.94785 21.4542 9.365C21.3492 9.67787 21.0554 9.88644 20.7195 9.88644C20.2786 9.88644 19.9428 9.53186 19.9428 9.11471C19.9428 9.01043 19.9637 8.927 19.9847 8.84357Z" fill="#F44747"/>
</g>
<defs>
<clipPath id="clip0">
<rect width="22" height="18" fill="white" transform="matrix(-1 0 0 1 22 0)"/>
</clipPath>
</defs>
</svg>
