<svg width="18" height="18" viewBox="0 0 18 18" fill="none" xmlns="http://www.w3.org/2000/svg">
<path d="M17.2846 9.53787L15.4052 6.28255L15.5578 6.19445C15.8853 6.00531 16.1197 5.69994 16.2176 5.33456C16.3155 4.96914 16.2652 4.58755 16.0761 4.25996C15.6857 3.58369 14.8179 3.3511 14.1416 3.74161L13.9891 3.82968L12.1096 0.574363C11.9563 0.308861 11.7088 0.118945 11.4127 0.0395968C11.1166 -0.0397515 10.8073 0.00099489 10.5418 0.154277C10.2763 0.30756 10.0863 0.555027 10.007 0.85115C9.95264 1.054 9.95468 1.26301 10.0106 1.45992L8.21085 3.4849C8.08186 3.63006 8.09497 3.85225 8.2401 3.98124C8.38519 4.1102 8.60745 4.09715 8.73644 3.95203L10.3566 2.12905L15.0639 10.2823L7.19711 11.9699L4.99709 8.15931L6.63468 6.3168C6.76367 6.17163 6.75055 5.94944 6.60543 5.82046C6.46037 5.6915 6.23811 5.70454 6.10909 5.84967L4.34068 7.83939L1.39976 9.53731C1.01213 9.76112 0.734814 10.1225 0.618973 10.5548C0.503132 10.9872 0.562582 11.4389 0.786388 11.8265L1.91702 13.7848C2.22707 14.3218 2.79151 14.6223 3.37113 14.6223C3.65523 14.6223 3.94302 14.5501 4.2062 14.3982L5.04191 13.9157L8.71035 17.5838C8.98405 17.8574 9.3489 18 9.71748 18C9.96105 18 10.2063 17.9377 10.4277 17.8098C10.8139 17.5869 11.0688 17.2055 11.127 16.7633C11.1852 16.3212 11.0377 15.8868 10.7224 15.5715L9.45121 14.3005L9.79792 14.1003C10.063 13.9473 10.2345 13.685 10.2682 13.3807C10.302 13.0765 10.1923 12.783 9.96723 12.5755L9.54427 12.1855L15.4698 10.9144C15.6121 11.0605 15.7915 11.1662 15.9937 11.2204C16.0926 11.2469 16.1929 11.26 16.2926 11.26C16.4914 11.26 16.6878 11.2078 16.8646 11.1057C17.1301 10.9524 17.32 10.7049 17.3994 10.4088C17.4787 10.1127 17.438 9.80337 17.2846 9.53787ZM14.3406 4.43859L14.4932 4.35053C14.8337 4.15386 15.2706 4.271 15.4672 4.61153C15.6638 4.95202 15.5467 5.38894 15.2062 5.58554L15.0537 5.67364L14.3523 4.45888L14.3406 4.43859ZM3.85464 13.7893C3.39015 14.0573 2.79411 13.8977 2.52593 13.4333L1.3953 11.475C1.2654 11.25 1.23091 10.9879 1.29813 10.7369C1.36535 10.4859 1.52633 10.2762 1.75133 10.1463L4.43708 8.59568L6.54035 12.2387L3.85464 13.7893ZM10.4299 16.6716C10.4004 16.8952 10.2715 17.0882 10.0762 17.2009C9.79461 17.3635 9.43739 17.3165 9.2075 17.0866L5.67234 13.5517L6.96279 12.8067L10.2252 16.0688C10.3847 16.2283 10.4593 16.448 10.4299 16.6716ZM9.49062 13.0925C9.5495 13.1468 9.57819 13.2235 9.56937 13.3031C9.56054 13.3827 9.51568 13.4514 9.44632 13.4914L8.93644 13.7858L7.72608 12.5755L8.70272 12.366L9.49062 13.0925ZM16.7201 10.2268C16.6894 10.3416 16.6159 10.4374 16.513 10.4968C16.4102 10.5561 16.2903 10.572 16.1756 10.5412C16.0609 10.5105 15.965 10.4369 15.9056 10.3341L10.7305 1.37041C10.6712 1.26758 10.6554 1.1478 10.6861 1.03316C10.7169 0.91844 10.7905 0.822603 10.8933 0.763188C10.9618 0.723637 11.0379 0.703422 11.1149 0.703422C11.1536 0.703422 11.1924 0.70852 11.2307 0.718786C11.3454 0.749513 11.4413 0.823095 11.5007 0.925963L16.6757 9.88947C16.7351 9.9923 16.7509 10.1121 16.7201 10.2268Z" fill="#F44747"/>
</svg>
