<svg width="37" height="38" viewBox="0 0 37 38" fill="none" xmlns="http://www.w3.org/2000/svg">
<path d="M18.5004 37.0166C28.7179 37.0166 37.0008 28.7302 37.0008 18.5083C37.0008 8.28646 28.7179 0 18.5004 0C8.28291 0 0 8.28646 0 18.5083C0 28.7302 8.28291 37.0166 18.5004 37.0166Z" fill="url(#paint0_linear)"/>
<path d="M29.7838 11.403C29.0392 11.7468 28.2374 11.9187 27.4928 12.0333C27.8364 11.976 28.4092 11.2884 28.6383 11.0019C28.982 10.6007 29.2683 10.1423 29.3829 9.62662C29.3829 9.56932 29.4402 9.51202 29.3829 9.51202C29.3256 9.51202 29.3256 9.51202 29.2684 9.51202C28.4092 9.97043 27.4928 10.3142 26.5191 10.5434C26.4618 10.5434 26.4045 10.5434 26.3472 10.4861C26.29 10.3715 26.1754 10.3142 26.1181 10.2569C25.7172 9.91313 25.259 9.62663 24.8008 9.45472C24.1707 9.16821 23.4834 9.05361 22.7388 9.11091C22.0515 9.16821 21.4214 9.34012 20.7914 9.68393C20.2186 9.97043 19.6459 10.4288 19.2449 10.9446C18.7867 11.4603 18.5003 12.1479 18.3285 12.8355C18.1567 13.4658 18.1567 14.1534 18.2712 14.7837C18.2712 14.8983 18.2712 14.8983 18.1567 14.8983C14.3764 14.3253 11.2834 13.0074 8.76327 10.085C8.64872 9.97043 8.59144 9.97043 8.47689 10.085C7.38863 11.7468 7.90411 14.4399 9.27876 15.7006C9.45059 15.8725 9.67969 16.0444 9.85152 16.2163C9.79425 16.2163 8.87782 16.159 8.01867 15.7006C7.90412 15.6433 7.84684 15.6433 7.84684 15.8152C7.84684 15.9871 7.84684 16.159 7.90412 16.3309C8.13322 17.9926 9.27876 19.597 10.8825 20.1701C11.0543 20.2274 11.2834 20.342 11.5126 20.342C11.1689 20.3993 10.768 20.4566 9.73697 20.3993C9.62242 20.3993 9.56514 20.4566 9.62242 20.5712C10.4243 22.6913 12.0853 23.3216 13.3454 23.7227C13.5172 23.78 13.6891 23.78 13.8609 23.78C13.8609 23.78 13.8609 23.78 13.8036 23.8373C13.4027 24.4677 11.9135 24.9834 11.2262 25.2126C9.96608 25.671 8.64872 25.8429 7.33135 25.7283C7.10224 25.671 7.10224 25.7283 7.04497 25.7283C6.98769 25.7856 7.04496 25.7856 7.10224 25.8429C7.38862 26.0148 7.61773 26.1867 7.90412 26.3013C8.70599 26.7597 9.62242 27.1035 10.4816 27.3327C15.121 28.5934 20.3905 27.6765 23.8843 24.1812C26.6336 21.4307 27.6073 17.7061 27.6073 13.9242C27.6073 13.7523 27.7792 13.695 27.8937 13.6377C28.581 13.122 29.2111 12.4344 29.7266 11.7468C29.8411 11.5749 29.8411 11.4603 29.8411 11.403C29.8411 11.3457 29.8411 11.3457 29.7838 11.403Z" fill="white"/>
<defs>
<linearGradient id="paint0_linear" x1="5.40171" y1="5.42821" x2="31.6114" y2="31.6268" gradientUnits="userSpaceOnUse">
<stop stop-color="#33CCFF"/>
<stop offset="1" stop-color="#337FFF"/>
</linearGradient>
</defs>
</svg>
