<svg width="37" height="38" viewBox="0 0 37 38" fill="none" xmlns="http://www.w3.org/2000/svg">
<path d="M18.5004 37.0166C28.7179 37.0166 37.0008 28.7302 37.0008 18.5083C37.0008 8.28646 28.7179 0 18.5004 0C8.2829 0 0 8.28646 0 18.5083C0 28.7302 8.2829 37.0166 18.5004 37.0166Z" fill="url(#paint0_linear)"/>
<path d="M14.1474 16.8466C14.1474 16.9039 14.1474 16.9612 14.1474 16.9612C14.1474 17.9926 14.1474 20.2273 14.1474 20.2273C14.1474 20.2273 18.4432 20.2273 18.6723 20.2273C18.6723 20.5712 18.2713 21.8891 17.0112 22.7486C16.2667 23.2643 15.4648 23.4935 14.5483 23.5508C13.9183 23.6081 13.2883 23.5508 12.7155 23.3216C10.8254 22.6913 9.45071 21.0296 9.2216 18.9667C9.16433 18.451 9.22159 17.9353 9.33615 17.4196C9.90892 14.9556 12.2 13.122 14.892 13.5231C16.0948 13.695 16.7249 14.2107 17.3549 14.7264C18.1568 13.9242 18.9587 13.122 19.8178 12.2625C19.5887 12.0906 19.1305 11.6322 18.3286 11.1737C17.0685 10.4861 15.7512 10.085 14.3192 10.085C14.0329 10.085 13.8037 10.085 13.5174 10.085C13.0591 10.085 12.6009 10.1996 12.1427 10.3142C10.3099 10.7726 8.82066 11.7468 7.61784 13.1793C6.47231 14.5545 5.84227 16.2163 5.72772 17.9926C5.67044 18.7375 5.72771 19.5397 5.89954 20.2847C6.35776 22.3475 7.44602 24.0665 9.2216 25.3272C10.539 26.3013 12.0854 26.817 13.7465 26.9316C14.6629 26.9889 15.5793 26.8743 16.4957 26.6451C18.1568 26.1867 19.5887 25.3272 20.6197 23.8946C22.1662 21.8891 22.5098 19.2532 22.0516 16.7893C19.4169 16.8466 16.7821 16.8466 14.1474 16.8466Z" fill="white"/>
<path d="M32.2468 16.9612H29.383V14.0961V14.0388H29.3257H27.2064H27.0919V14.0961V16.9612H24.228H24.1708V17.0185V19.1959V19.2532H24.228H27.0919V22.1183V22.1756H27.2064H29.3257H29.383V22.1183V19.2532H32.2468H32.3614V19.1959V17.0185V16.9612H32.2468Z" fill="white"/>
<defs>
<linearGradient id="paint0_linear" x1="5.38963" y1="5.42821" x2="31.5994" y2="31.6268" gradientUnits="userSpaceOnUse">
<stop stop-color="#FC4D3F"/>
<stop offset="1" stop-color="#CD083F"/>
</linearGradient>
</defs>
</svg>
