<svg width="14" height="14" viewBox="0 0 14 14" fill="none" xmlns="http://www.w3.org/2000/svg">
<path d="M12.9178 1.53424H11.589V0.863011C11.589 0.749532 11.497 0.657532 11.3836 0.657532C11.2701 0.657532 11.1781 0.749532 11.1781 0.863011V1.53424H9.39726V0.863011C9.39726 0.749532 9.30526 0.657532 9.19178 0.657532C9.0783 0.657532 8.9863 0.749532 8.9863 0.863011V1.53424H7.20548V0.863011C7.20548 0.749532 7.11348 0.657532 7 0.657532C6.88652 0.657532 6.79452 0.749532 6.79452 0.863011V1.53424H5.0137V0.863011C5.0137 0.749532 4.9217 0.657532 4.80822 0.657532C4.69474 0.657532 4.60274 0.749532 4.60274 0.863011V1.53424H2.82192V0.863011C2.82192 0.749532 2.72992 0.657532 2.61644 0.657532C2.50296 0.657532 2.41096 0.749532 2.41096 0.863011V1.53424H1.08219C0.485479 1.53424 0 2.01972 0 2.61644V12.2603C0 12.857 0.485479 13.3425 1.08219 13.3425H12.9178C13.5145 13.3425 14 12.857 14 12.2603V2.61644C14 2.01972 13.5145 1.53424 12.9178 1.53424ZM13.589 12.2603C13.589 12.6304 13.2879 12.9315 12.9178 12.9315H1.08219C0.712082 12.9315 0.410959 12.6304 0.410959 12.2603V2.61644C0.410959 2.24633 0.712082 1.9452 1.08219 1.9452H2.41096V2.61644C2.41096 2.72992 2.50296 2.82192 2.61644 2.82192C2.72992 2.82192 2.82192 2.72992 2.82192 2.61644V1.9452H4.60274V2.61644C4.60274 2.72992 4.69474 2.82192 4.80822 2.82192C4.9217 2.82192 5.0137 2.72992 5.0137 2.61644V1.9452H6.79452V2.61644C6.79452 2.72992 6.88652 2.82192 7 2.82192C7.11348 2.82192 7.20548 2.72992 7.20548 2.61644V1.9452H8.9863V2.61644C8.9863 2.72992 9.0783 2.82192 9.19178 2.82192C9.30526 2.82192 9.39726 2.72992 9.39726 2.61644V1.9452H11.1781V2.61644C11.1781 2.72992 11.2701 2.82192 11.3836 2.82192C11.497 2.82192 11.589 2.72992 11.589 2.61644V1.9452H12.9178C13.2879 1.9452 13.589 2.24633 13.589 2.61644V12.2603Z" fill="black"/>
<path d="M12.9178 3.72601H1.08219C0.968709 3.72601 0.876709 3.81801 0.876709 3.93149C0.876709 4.04497 0.968709 4.13697 1.08219 4.13697H12.9178C13.0313 4.13697 13.1233 4.04497 13.1233 3.93149C13.1233 3.81801 13.0313 3.72601 12.9178 3.72601Z" fill="black"/>
<path d="M10.5807 6.19715L6.28795 10.4899C6.19716 10.5807 6.04943 10.5807 5.95861 10.4899L3.8576 8.3889C3.77735 8.30866 3.64724 8.30866 3.56702 8.3889C3.48677 8.46915 3.48677 8.59926 3.56702 8.67948L5.66803 10.7805C5.78962 10.9021 5.95129 10.9691 6.12329 10.9691C6.29529 10.9691 6.45694 10.9021 6.57856 10.7805L10.8713 6.4877C10.9516 6.40745 10.9516 6.27734 10.8713 6.19712C10.7911 6.1169 10.661 6.1169 10.5807 6.19715Z" fill="black"/>
</svg>
