<svg width="37" height="38" viewBox="0 0 37 38" fill="none" xmlns="http://www.w3.org/2000/svg">
<path d="M18.5004 37.0166C28.7179 37.0166 37.0008 28.7302 37.0008 18.5083C37.0008 8.28645 28.7179 0 18.5004 0C8.28291 0 0 8.28645 0 18.5083C0 28.7302 8.28291 37.0166 18.5004 37.0166Z" fill="url(#paint0_linear)"/>
<path d="M29.5548 15.4713C29.5548 12.7209 27.321 10.4288 24.5144 10.4288H11.6844C8.93512 10.4288 6.64404 12.6636 6.64404 15.4713V21.4307C6.64404 24.1812 8.87784 26.4732 11.6844 26.4732H24.5144C27.2637 26.4732 29.5548 24.2385 29.5548 21.4307V15.4713ZM21.9942 18.9094L16.2093 21.7745C15.9802 21.8891 15.2356 21.7172 15.2356 21.488V15.6433C15.2356 15.3567 16.0374 15.2421 16.2093 15.3567L21.7078 18.3364C21.9942 18.451 22.2233 18.7948 21.9942 18.9094Z" fill="white"/>
<defs>
<linearGradient id="paint0_linear" x1="5.4138" y1="5.41457" x2="31.6235" y2="31.6131" gradientUnits="userSpaceOnUse">
<stop stop-color="#FF0000"/>
<stop offset="1" stop-color="#850000"/>
</linearGradient>
</defs>
</svg>
