<svg version="1.1" xmlns="http://www.w3.org/2000/svg" xmlns:xlink="http://www.w3.org/1999/xlink" x="0px" y="0px"
	 viewBox="0 0 22 18" style="enable-background:new 0 0 22 18;" xml:space="preserve">
<path class="bgColor" fill="#fff" d="M8.2,1.3L7,1.2C6.2,0.9,5.3,1,4.7,1.4L4.2,1.7c-0.7,0.3-1.6,1-2,1.7L1.4,4.2C1,5,1.2,5.7,1.3,6.6l0.1,1.3
	c0,0.3,0.2,0.7,0.3,1l0.6,1.3c-0.2,2,0.6,1.8,1.1,1.9l1.5,1.5c0.2,0.3,0.5,0.7,0.8,1l2.2,1.2c0.1,0.1,0.6,0.4,0.7,0.5l1.8,1.1
	c1.1,0.6,2.1-0.1,3.3-0.6l2.4-1.2c0.2-0.1,0.4-0.2,0.5-0.3l0.8-0.6c0.1-0.1,0.3-0.2,0.4-0.3l1.6-1.5c0.5-0.4,0.7-0.8,0.9-1.1
	l0.8-1.5c0.2-0.4,0.4-0.9,0.5-1.3l0.3-1.8c0.1-0.5,0.1-1.1,0-1.6l-0.1-0.3c-0.1-0.3-0.2-0.6-0.3-0.9L21.4,4
	c-0.3-0.6-0.8-1.2-1.4-1.6l-0.9-0.6c-0.7-0.4-1.4-0.7-2.2-0.7h-1c-0.4,0-0.9,0.1-1.3,0.2l-0.4,0.1c-0.7,0.2-1.3,0.7-1.8,1.2
	l-0.3,0.4l-0.8,0l-0.2-0.2C10.8,2.4,10.3,2,9.7,1.7l0,0C9.3,1.5,8.7,1.3,8.2,1.3z"/>
<path class="strokeColor" fill="#F44747" d="M1.8,1.8c2.4-2.4,6.4-2.4,8.9,0C10.8,1.9,10.9,2,11,2.1c2.3-2.6,6.3-2.8,8.9-0.6C21.2,2.7,21.9,4.3,22,6
			c0,0.4-0.3,0.8-0.8,0.8c-0.4,0-0.8-0.3-0.8-0.8c-0.1-2.5-2.2-4.5-4.7-4.5c-1.7,0-3.2,0.9-4,2.3L11,4.9l-0.7-1.1
			C9,1.6,6.1,0.9,3.9,2.2c-1.4,0.9-2.3,2.4-2.3,4S2.1,9.4,3,10.8c1.4,2,3.5,3.4,5.1,4.3c0.7,0.4,1.4,0.7,2.2,1
			c0.3,0.1,0.5,0.2,0.7,0.3c1-0.4,2-0.8,2.9-1.3c1.4-0.7,3.3-2,4.7-3.7c0.3-0.3,0.8-0.4,1.1-0.1c0.3,0.3,0.4,0.7,0.1,1.1
			c-1.3,1.6-3.1,3.1-5.5,4.3c-1,0.5-2,1-3.1,1.3L11,18l-0.2-0.1c0,0,0,0,0,0c-1.9-0.6-3.7-1.5-5.3-2.6c-1.6-1.1-2.8-2.3-3.7-3.6
			C1.2,11,0.8,10.1,0.5,9.2c-0.3-1-0.5-2-0.5-3C0,4.6,0.7,3,1.8,1.8z"/>
		<path class="strokeColor" fill="#F44747" d="M20,8.8c0.1-0.3,0.4-0.5,0.7-0.5c0.1,0,0.2,0,0.3,0c0.4,0.1,0.6,0.6,0.5,1c-0.1,0.3-0.4,0.5-0.7,0.5
			c-0.4,0-0.8-0.4-0.8-0.8C19.9,9,20,8.9,20,8.8z"/>
</svg>
