<svg width="37" height="38" viewBox="0 0 37 38" fill="none" xmlns="http://www.w3.org/2000/svg">
<path d="M18.5004 37.0166C28.7179 37.0166 37.0008 28.7302 37.0008 18.5083C37.0008 8.28646 28.7179 0 18.5004 0C8.28291 0 0 8.28646 0 18.5083C0 28.7302 8.28291 37.0166 18.5004 37.0166Z" fill="url(#paint0_linear)"/>
<path fill-rule="evenodd" clip-rule="evenodd" d="M15.4647 18.7375V30.0832C15.4647 30.2551 15.5793 30.3697 15.7511 30.3697H19.9896C20.1614 30.3697 20.276 30.2551 20.276 30.0832V18.5656H23.3116C23.4834 18.5656 23.598 18.451 23.598 18.2791L23.8844 14.7837C23.8844 14.6118 23.7698 14.4399 23.598 14.4399H20.276V12.0333C20.276 11.4602 20.7342 11.0018 21.3069 11.0018H23.6553C23.8271 11.0018 23.9417 10.8872 23.9417 10.7153V7.21995C23.9417 7.04804 23.8271 6.93344 23.6553 6.93344H19.7032C17.3548 6.93344 15.4647 8.82438 15.4647 11.1737V14.4972H13.3455C13.1736 14.4972 13.0591 14.6118 13.0591 14.7837V18.2791C13.0591 18.451 13.1736 18.5656 13.3455 18.5656H15.4647V18.7375Z" fill="white"/>
<defs>
<linearGradient id="paint0_linear" x1="5.42588" y1="5.42821" x2="31.6356" y2="31.6268" gradientUnits="userSpaceOnUse">
<stop stop-color="#3C5A99"/>
<stop offset="1" stop-color="#2B1E99"/>
</linearGradient>
</defs>
</svg>
