<svg width="20" height="22" viewBox="0 0 20 22" fill="none" xmlns="http://www.w3.org/2000/svg">
<path d="M17.2625 14.5579L12.9417 13.7704C12.7833 13.7413 12.6667 13.6038 12.6667 13.4413V12.1413C13.4208 11.6038 13.9958 10.8496 14.3125 9.9746C14.9167 9.87877 15.4 9.42877 15.55 8.8371L15.7417 8.07877C15.7625 7.9871 15.775 7.89543 15.775 7.7996C15.775 7.3246 15.475 6.89543 15.0292 6.73293L15.1208 6.2746C15.1583 6.0871 15.1875 5.89543 15.2042 5.6996C15.2208 5.5371 15.2292 5.3746 15.2292 5.21627C15.2292 4.52877 15.0917 3.84543 14.825 3.2121C14.5667 2.59127 14.1875 2.02877 13.7167 1.5496C12.2333 0.0496004 9.9875 -0.408733 8.02917 0.382934C7.85833 0.453767 7.775 0.645434 7.84583 0.816267C7.91667 0.9871 8.10833 1.07043 8.27917 0.9996C10.6167 0.0496005 13.2833 1.17877 14.2292 3.51627C14.3792 3.8871 14.4792 4.2746 14.5292 4.67043C13.8917 4.1496 13.1 4.0121 13.0542 4.00377L12.925 3.98293L11.6458 4.83293C10.65 5.4996 9.35 5.4996 8.35 4.83293L7.07083 3.98293L6.94167 4.00377C6.89583 4.0121 6.10417 4.1496 5.46667 4.67043C5.5625 3.88293 5.8625 3.1371 6.3375 2.50377C6.45 2.35793 6.425 2.1496 6.28333 2.0371C6.1375 1.9246 5.92917 1.9496 5.81667 2.09127C5.8125 2.09543 5.80833 2.0996 5.80417 2.10377C5.475 2.54543 5.21667 3.03293 5.04167 3.55793C4.8625 4.09127 4.76667 4.65377 4.76667 5.21627C4.76667 5.57043 4.80417 5.92877 4.875 6.2746L4.96667 6.73293C4.52083 6.8996 4.22083 7.3246 4.22083 7.7996C4.22083 7.89543 4.23333 7.9871 4.25417 8.07877L4.44583 8.8371C4.59167 9.42877 5.07917 9.87877 5.68333 9.9746C6 10.8454 6.575 11.5996 7.32917 12.1413V13.4413C7.32917 13.6038 7.2125 13.7413 7.05417 13.7704L2.7375 14.5579C1.15417 14.8454 0 16.2246 0 17.8371V20.9996C0 21.1829 0.15 21.3329 0.333333 21.3329C0.516667 21.3329 0.666667 21.1829 0.666667 20.9996V17.8371C0.666667 16.5496 1.5875 15.4454 2.85833 15.2121L6.70833 14.5121C6.77083 14.9288 6.91667 15.3288 7.12917 15.6913C7.22083 15.8496 7.425 15.9038 7.58333 15.8079C7.74167 15.7163 7.79583 15.5079 7.7 15.3496C7.525 15.0496 7.40833 14.7163 7.35833 14.3704C7.74583 14.2204 8 13.8496 8 13.4371V12.5413C9.2625 13.1538 10.7375 13.1538 12 12.5413V13.4454C12 13.8579 12.2542 14.2288 12.6417 14.3788C12.4583 15.6954 11.3292 16.6746 10 16.6704C9.86667 16.6704 9.73333 16.6621 9.60417 16.6413C9.42083 16.6121 9.25417 16.7413 9.225 16.9204C9.2 17.1038 9.325 17.2704 9.50417 17.2996C9.66667 17.3246 9.83333 17.3371 10 17.3371C11.6417 17.3413 13.0417 16.1413 13.2917 14.5163L17.1417 15.2163C18.4083 15.4454 19.3333 16.5496 19.3333 17.8413V20.9996C19.3333 21.1829 19.4833 21.3329 19.6667 21.3329C19.85 21.3329 20 21.1829 20 20.9996V17.8371C20 16.2246 18.85 14.8454 17.2625 14.5579ZM10 12.3329C8.275 12.3413 6.75417 11.2163 6.25 9.56627L6.17917 9.33293H5.93333C5.5375 9.33293 5.19167 9.0621 5.09583 8.67877L4.90417 7.92043C4.8625 7.7621 4.90833 7.59127 5.025 7.4746C5.1125 7.38293 5.23333 7.33293 5.3625 7.33293H5.77083L5.525 6.14543C5.49583 6.00377 5.475 5.8621 5.45833 5.72043C5.775 5.04127 6.6125 4.77043 6.92917 4.69127L7.97917 5.39127C9.2 6.20377 10.7917 6.20377 12.0125 5.39127L13.0625 4.69127C13.3792 4.77043 14.2125 5.04127 14.5333 5.72043C14.5167 5.8621 14.4958 6.00377 14.4667 6.14543L14.225 7.33293V7.3371H14.6333C14.7583 7.3371 14.8792 7.3871 14.9708 7.47877C15.0583 7.56627 15.1083 7.6871 15.1083 7.80793C15.1083 7.84543 15.1042 7.8871 15.0917 7.9246L14.9 8.68293C14.8042 9.06627 14.4583 9.3371 14.0625 9.3371H13.8167L13.7417 9.57043C13.2458 11.2163 11.725 12.3413 10 12.3329Z" fill="#A3A3A3"/>
<path d="M3.00001 18.3329C2.81667 18.3329 2.66667 18.4829 2.66667 18.6663V20.9996C2.66667 21.1829 2.81667 21.3329 3.00001 21.3329C3.18334 21.3329 3.33334 21.1829 3.33334 20.9996V18.6663C3.33334 18.4829 3.18334 18.3329 3.00001 18.3329Z" fill="#A3A3A3"/>
<path d="M17 18.3329C16.8167 18.3329 16.6667 18.4829 16.6667 18.6663V20.9996C16.6667 21.1829 16.8167 21.3329 17 21.3329C17.1833 21.3329 17.3333 21.1829 17.3333 20.9996V18.6663C17.3333 18.4829 17.1833 18.3329 17 18.3329Z" fill="#A3A3A3"/>
<path d="M8.50833 16.2121C8.35417 16.1121 8.14583 16.1538 8.04583 16.3079C7.95 16.4579 7.98333 16.6538 8.12917 16.7579L8.13333 16.7621C8.28333 16.8704 8.49167 16.8329 8.6 16.6829C8.70833 16.5329 8.67083 16.3246 8.52083 16.2163C8.51667 16.2163 8.5125 16.2121 8.50833 16.2121Z" fill="#A3A3A3"/>
<path d="M7.00417 1.69126C7.075 1.69126 7.14584 1.66626 7.20417 1.6246L7.20834 1.62043C7.35417 1.50793 7.37917 1.2996 7.26667 1.15376C7.20417 1.07043 7.10417 1.0246 7.00417 1.0246C6.82084 1.0246 6.67084 1.1746 6.67084 1.35793C6.67084 1.54126 6.82084 1.69126 7.00417 1.69126Z" fill="#A3A3A3"/>
</svg>
