<svg width="37" height="38" viewBox="0 0 37 38" fill="none" xmlns="http://www.w3.org/2000/svg">
<path d="M18.5004 37.0166C28.7179 37.0166 37.0008 28.7302 37.0008 18.5083C37.0008 8.28645 28.7179 0 18.5004 0C8.28291 0 0 8.28645 0 18.5083C0 28.7302 8.28291 37.0166 18.5004 37.0166Z" fill="url(#paint0_linear)"/>
<path d="M5.72754 25.2699C5.72754 25.1553 5.72754 24.9834 5.72754 24.8688C5.89937 24.6969 6.0712 24.525 6.35758 24.4677C8.47682 24.0666 9.85147 22.6913 10.9397 20.915C11.8562 19.4252 11.6843 19.0813 10.0233 18.5083C9.90874 18.451 9.85147 18.451 9.73691 18.3937C9.39325 18.2218 9.04959 18.1072 8.70593 17.8207C7.96133 17.1904 8.41955 16.2736 9.2787 16.0444C9.90874 15.8725 10.4815 16.2736 11.1116 16.3882C11.5125 16.4455 11.6843 16.2736 11.627 15.8725C11.5125 14.7264 11.5125 13.5804 11.5698 12.4917C11.6843 10.3142 12.7153 8.65251 14.5482 7.62109C17.1829 6.07395 19.9322 6.01665 22.5669 7.62109C24.2279 8.59521 25.3162 10.085 25.5453 12.0333C25.7171 13.2939 25.6598 14.6118 25.5453 15.8725C25.488 16.4455 25.6026 16.5601 26.1753 16.3882C26.8627 16.2163 27.4354 15.8725 28.1227 16.159C28.5237 16.3309 28.8101 16.6747 28.8101 17.0758C28.8101 17.3623 28.6382 17.6488 28.4091 17.8207C28.0655 18.1072 27.6645 18.2791 27.2636 18.451C26.9772 18.5656 26.6336 18.6802 26.3472 18.7948C25.7171 19.0813 25.5453 19.4825 25.8317 20.1128C26.8627 22.2329 28.2946 23.8374 30.7002 24.4104C30.9866 24.4677 31.2157 24.5823 31.3875 24.8115C31.3875 24.9261 31.3875 25.098 31.3875 25.2126C31.1584 25.671 30.7575 25.9575 30.2993 26.1294C29.8411 26.3013 29.3828 26.5305 28.8673 26.5305C28.18 26.5878 27.7791 26.8743 27.7218 27.6192C27.6073 28.3069 27.4354 28.4215 26.6908 28.3642C26.519 28.3642 26.3472 28.3069 26.1753 28.3069C24.8007 28.0777 23.5406 28.1923 22.3951 29.1091C22.166 29.281 21.9369 29.4529 21.7078 29.5675C19.7603 30.8281 17.8129 30.9427 15.8082 29.7967C15.2355 29.4529 14.72 29.1091 14.2045 28.7653C13.7463 28.4788 13.2881 28.3069 12.7726 28.2496C11.9134 28.1349 11.1688 28.3069 10.3097 28.4215C9.90874 28.4788 9.5078 28.3642 9.45053 27.9057C9.39325 26.8743 8.76321 26.5878 7.90406 26.5305C7.50312 26.4732 7.10218 26.3013 6.70124 26.1867C6.30031 25.9575 5.95665 25.7283 5.72754 25.2699Z" fill="white"/>
<defs>
<linearGradient id="paint0_linear" x1="5.42588" y1="5.41457" x2="31.6356" y2="31.6131" gradientUnits="userSpaceOnUse">
<stop stop-color="#FEFB01"/>
<stop offset="1" stop-color="#FCBB45"/>
</linearGradient>
</defs>
</svg>
