<svg width="15" height="15" viewBox="0 0 15 15" fill="none" xmlns="http://www.w3.org/2000/svg">
<path d="M9.83262 0C6.98334 0 4.66525 2.31806 4.66525 5.16738C4.66525 6.33977 5.05797 7.422 5.71839 8.29002L4.6716 9.33681C4.66496 9.34346 4.6589 9.35045 4.65316 9.35765C4.56747 9.3398 4.47942 9.33043 4.38987 9.33043C4.04808 9.33043 3.7267 9.46355 3.48492 9.70533L0.374805 12.8154C0.133088 13.0571 0 13.3784 0 13.7203C0 14.0621 0.133088 14.3835 0.374772 14.6251C0.616554 14.8668 0.937935 15 1.27973 15C1.62152 15 1.9429 14.8668 2.18468 14.6251L5.29479 11.515C5.53651 11.2733 5.6696 10.952 5.6696 10.6101C5.6696 10.5205 5.66024 10.4325 5.64239 10.3468C5.64958 10.3411 5.65654 10.335 5.66318 10.3284L6.70994 9.28161C7.578 9.94206 8.66023 10.3348 9.83262 10.3348C12.6819 10.3348 15 8.01669 15 5.16738C15 2.31806 12.6819 0 9.83262 0ZM1.84101 14.2815C1.69104 14.4314 1.49174 14.514 1.27973 14.514C1.06772 14.514 0.868411 14.4314 0.718411 14.2814C0.568508 14.1316 0.48596 13.9323 0.48596 13.7203C0.48596 13.5082 0.568509 13.309 0.718443 13.1591L3.52723 10.3503L4.6497 11.4728L1.84101 14.2815ZM4.99162 11.1274L3.873 10.0088C4.02122 9.88132 4.20534 9.81685 4.38987 9.81685C4.59313 9.81685 4.79646 9.89424 4.95119 10.049C5.10109 10.1988 5.18364 10.3981 5.18364 10.6102C5.18364 10.8021 5.11573 10.9836 4.99162 11.1274ZM5.43401 9.87033C5.3926 9.81215 5.34634 9.75685 5.29483 9.70537C5.24325 9.65382 5.18788 9.60753 5.12966 9.56609L6.03164 8.66412C6.12883 8.7697 6.23036 8.87123 6.33595 8.96842L5.43401 9.87033ZM9.83262 9.84879C7.25127 9.84879 5.15121 7.74873 5.15121 5.16738C5.15121 2.58602 7.25127 0.48596 9.83262 0.48596C12.414 0.48596 14.514 2.58602 14.514 5.16738C14.514 7.74873 12.414 9.84879 9.83262 9.84879Z" fill="#F44747"/>
<path d="M9.83269 1.03671C7.55502 1.03671 5.70203 2.88971 5.70203 5.16737C5.70203 7.44504 7.55502 9.29803 9.83269 9.29803C12.1103 9.29803 13.9633 7.44504 13.9633 5.16737C13.9633 2.88971 12.1103 1.03671 9.83269 1.03671ZM9.83269 8.81207C7.82302 8.81207 6.18799 7.17708 6.18799 5.16737C6.18799 3.15767 7.82302 1.52267 9.83269 1.52267C11.8424 1.52267 13.4774 3.15767 13.4774 5.16737C13.4774 7.17708 11.8424 8.81207 9.83269 8.81207Z" fill="#F44747"/>
<path d="M11.5199 2.57358C11.4075 2.50029 11.257 2.53201 11.1837 2.64446C11.1104 2.75688 11.1421 2.90743 11.2546 2.98068C11.9972 3.4647 12.4406 4.28215 12.4406 5.16737C12.4406 5.77213 12.2289 6.36154 11.8446 6.82696C11.7591 6.9304 11.7737 7.08358 11.8772 7.16904C11.9225 7.20646 11.9773 7.22467 12.0318 7.22467C12.1018 7.22467 12.1712 7.19457 12.2193 7.13642C12.6754 6.58414 12.9266 5.88484 12.9266 5.16741C12.9266 4.11728 12.4007 3.14766 11.5199 2.57358Z" fill="#F44747"/>
<path d="M10.3949 2.12447C10.2107 2.09061 10.0215 2.07344 9.8327 2.07344C9.69848 2.07344 9.58972 2.18223 9.58972 2.31642C9.58972 2.45061 9.69848 2.5594 9.8327 2.5594C9.99216 2.5594 10.1518 2.57388 10.3072 2.60242C10.322 2.60515 10.3368 2.60647 10.3513 2.60647C10.4663 2.60647 10.5685 2.52448 10.59 2.40736C10.6143 2.27537 10.5269 2.14873 10.3949 2.12447Z" fill="#F44747"/>
</svg>
